<?xml version="1.0" encoding="UTF-8" standalone="no"?>
<!DOCTYPE svg PUBLIC "-//W3C//DTD SVG 1.1//EN" "http://www.w3.org/Graphics/SVG/1.1/DTD/svg11.dtd">
<svg xmlns="http://www.w3.org/2000/svg" version="1.1" viewBox="0.00 0.00 800.00 800.00">
<g stroke-width="2.00" fill="none" stroke-linecap="butt">
<path stroke="#d00030" vector-effect="non-scaling-stroke" d="
  M 400.73 735.78
  C 400.36 734.71 399.99 733.86 399.99 732.70
  Q 400.02 611.78 400.00 490.86"
/>
<path stroke="#e18097" vector-effect="non-scaling-stroke" d="
  M 400.00 490.86
  L 478.23 490.86
  A 0.72 0.71 79.0 0 1 478.89 491.31
  L 515.90 583.67
  Q 516.15 584.31 516.84 584.31
  L 584.99 584.31
  Q 585.60 584.31 585.35 583.74
  Q 492.76 375.41 400.17 167.08
  Q 400.16 167.06 400.14 167.04
  Q 400.03 166.97 399.93 166.90"
/>
<path stroke="#d00030" vector-effect="non-scaling-stroke" d="
  M 399.93 166.90
  L 399.93 96.09"
/>
<path stroke="#ee8098" vector-effect="non-scaling-stroke" d="
  M 399.93 166.90
  L 213.91 584.00
  A 0.22 0.22 0.0 0 0 214.11 584.31
  L 282.83 584.31
  Q 283.21 584.31 283.35 583.96
  L 320.50 491.23
  A 0.62 0.60 -78.2 0 1 321.06 490.85
  L 400.00 490.86"
/>
<path stroke="#ee8098" vector-effect="non-scaling-stroke" d="
  M 399.25 304.29
  L 345.79 432.88
  Q 345.64 433.25 346.04 433.25
  L 399.99 433.25"
/>
<path stroke="#e18097" vector-effect="non-scaling-stroke" d="
  M 399.99 433.25
  L 454.10 433.24
  A 0.19 0.19 0.0 0 0 454.27 432.98
  L 400.33 303.19
  Q 400.12 302.68 399.76 303.09
  Q 399.37 303.54 399.25 304.29"
/>
<path stroke="#d00030" vector-effect="non-scaling-stroke" d="
  M 399.99 433.25
  Q 400.03 372.80 399.99 312.49
  Q 399.99 312.41 400.15 309.52
  Q 400.30 306.67 399.25 304.29"
/>
</g>
<path fill="#c3002f" d="
  M 400.73 735.78
  C 400.36 734.71 399.99 733.86 399.99 732.70
  Q 400.02 611.78 400.00 490.86
  L 478.23 490.86
  A 0.72 0.71 79.0 0 1 478.89 491.31
  L 515.90 583.67
  Q 516.15 584.31 516.84 584.31
  L 584.99 584.31
  Q 585.60 584.31 585.35 583.74
  Q 492.76 375.41 400.17 167.08
  Q 400.16 167.06 400.14 167.04
  Q 400.03 166.97 399.93 166.90
  L 399.93 96.09
  L 697.25 201.81
  A 1.12 1.12 0.0 0 1 697.99 202.99
  L 652.65 595.98
  A 0.56 0.55 -11.4 0 1 652.36 596.41
  L 400.73 735.78
  Z"
/>
<path fill="#dd0031" d="
  M 399.93 96.09
  L 399.93 166.90
  L 213.91 584.00
  A 0.22 0.22 0.0 0 0 214.11 584.31
  L 282.83 584.31
  Q 283.21 584.31 283.35 583.96
  L 320.50 491.23
  A 0.62 0.60 -78.2 0 1 321.06 490.85
  L 400.00 490.86
  Q 400.02 611.78 399.99 732.70
  C 399.99 733.86 400.36 734.71 400.73 735.78
  Q 400.35 736.15 399.99 735.95
  Q 273.99 666.16 147.85 596.30
  A 0.70 0.68 -79.6 0 1 147.49 595.76
  L 102.13 202.50
  Q 102.10 202.29 102.30 202.22
  L 399.93 96.09
  Z"
/>
<path fill="#ffffff" d="
  M 399.93 166.90
  Q 400.03 166.97 400.14 167.04
  Q 400.16 167.06 400.17 167.08
  Q 492.76 375.41 585.35 583.74
  Q 585.60 584.31 584.99 584.31
  L 516.84 584.31
  Q 516.15 584.31 515.90 583.67
  L 478.89 491.31
  A 0.72 0.71 79.0 0 0 478.23 490.86
  L 400.00 490.86
  L 321.06 490.85
  A 0.62 0.60 -78.2 0 0 320.50 491.23
  L 283.35 583.96
  Q 283.21 584.31 282.83 584.31
  L 214.11 584.31
  A 0.22 0.22 0.0 0 1 213.91 584.00
  L 399.93 166.90
  Z
  M 399.25 304.29
  L 345.79 432.88
  Q 345.64 433.25 346.04 433.25
  L 399.99 433.25
  L 454.10 433.24
  A 0.19 0.19 0.0 0 0 454.27 432.98
  L 400.33 303.19
  Q 400.12 302.68 399.76 303.09
  Q 399.37 303.54 399.25 304.29
  Z"
/>
<path fill="#c3002f" d="
  M 399.99 433.25
  Q 400.03 372.80 399.99 312.49
  Q 399.99 312.41 400.15 309.52
  Q 400.30 306.67 399.25 304.29
  Q 399.37 303.54 399.76 303.09
  Q 400.12 302.68 400.33 303.19
  L 454.27 432.98
  A 0.19 0.19 0.0 0 1 454.10 433.24
  L 399.99 433.25
  Z"
/>
<path fill="#dd0031" d="
  M 399.25 304.29
  Q 400.30 306.67 400.15 309.52
  Q 399.99 312.41 399.99 312.49
  Q 400.03 372.80 399.99 433.25
  L 346.04 433.25
  Q 345.64 433.25 345.79 432.88
  L 399.25 304.29
  Z"
/>
</svg>
