<?xml version="1.0" encoding="UTF-8" standalone="no"?>
<!DOCTYPE svg PUBLIC "-//W3C//DTD SVG 1.1//EN" "http://www.w3.org/Graphics/SVG/1.1/DTD/svg11.dtd">
<svg xmlns="http://www.w3.org/2000/svg" version="1.1" viewBox="0.00 0.00 1200.00 1040.00">
<path stroke="#3b8171" stroke-width="2.00" fill="none" stroke-linecap="butt" vector-effect="non-scaling-stroke" d="
  M 959.76 0.26
  L 600.25 623.45
  A 0.32 0.32 0.0 0 1 599.69 623.45
  L 240.22 0.26"
/>
<path fill="#34495e" d="
  M 240.57 0.00
  L 461.43 0.00
  L 599.58 239.35
  A 0.45 0.44 44.8 0 0 600.35 239.35
  L 738.50 0.00
  L 959.53 0.00
  Q 959.46 0.31 959.76 0.26
  L 600.25 623.45
  A 0.32 0.32 0.0 0 1 599.69 623.45
  L 240.22 0.26
  Q 240.44 0.17 240.57 0.00
  Z"
/>
<path fill="#41b883" d="
  M 240.22 0.26
  L 599.69 623.45
  A 0.32 0.32 0.0 0 0 600.25 623.45
  L 959.76 0.26
  L 1199.43 0.27
  Q 1199.91 0.27 1199.67 0.69
  L 600.13 1039.43
  A 0.19 0.19 0.0 0 1 599.80 1039.43
  L 0.30 0.76
  A 0.33 0.33 0.0 0 1 0.59 0.26
  L 240.22 0.26
  Z"
/>
</svg>
